HIERARCHY
ROOT hip
{
	OFFSET 0.000000 0.000000 0.000000
	CHANNELS 6 Xposition Yposition Zposition Xrotation Zrotation Yrotation 
	JOINT abdomen
	{
		OFFSET 0.000000 3.422050 0.000000
		CHANNELS 3 Xrotation Zrotation Yrotation 
		JOINT chest
		{
			OFFSET 0.000000 8.486693 -0.684411
			CHANNELS 3 Xrotation Zrotation Yrotation 
			JOINT neck
			{
				OFFSET 0.000000 10.266162 -0.273764
				CHANNELS 3 Xrotation Zrotation Yrotation 
				JOINT head
				{
					OFFSET 0.000000 3.148285 0.000000
					CHANNELS 3 Xrotation Zrotation Yrotation 
					End Site
					{
						OFFSET 0.000000 3.148289 0.000000
					}
				}
			}
			JOINT lCollar
			{
				OFFSET 3.422053 6.707223 -0.821293
				CHANNELS 3 Yrotation Zrotation Xrotation 
				JOINT lShldr
				{
					OFFSET 3.285171 0.000000 0.000000
					CHANNELS 3 Zrotation Yrotation Xrotation 
					JOINT lForeArm
					{
						OFFSET 10.129278 0.000000 0.000000
						CHANNELS 3 Yrotation Zrotation Xrotation 
						JOINT lHand
						{
							OFFSET 8.486692 0.000000 0.000000
							CHANNELS 3 Zrotation Yrotation Xrotation 
							End Site
							{
								OFFSET 4.106464 0.000000 0.000000
							}
						}
					}
				}
			}
			JOINT rCollar
			{
				OFFSET -3.558935 6.707223 -0.821293
				CHANNELS 3 Yrotation Zrotation Xrotation 
				JOINT rShldr
				{
					OFFSET -3.148289 0.000000 0.000000
					CHANNELS 3 Zrotation Yrotation Xrotation 
					JOINT rForeArm
					{
						OFFSET -10.266159 0.000000 0.000000
						CHANNELS 3 Yrotation Zrotation Xrotation 
						JOINT rHand
						{
							OFFSET -8.349810 0.000000 0.000000
							CHANNELS 3 Zrotation Yrotation Xrotation 
							End Site
							{
								OFFSET -4.106464 0.000000 0.000000
							}
						}
					}
				}
			}
		}
	}
	JOINT lThigh
	{
		OFFSET 5.338403 -1.642589 1.368821
		CHANNELS 3 Xrotation Zrotation Yrotation 
		JOINT lShin
		{
			OFFSET -2.053232 -20.121670 0.000000
			CHANNELS 3 Xrotation Zrotation Yrotation 
			JOINT lFoot
			{
				OFFSET 0.000000 -19.300380 -1.231939
				CHANNELS 3 Xrotation Yrotation Zrotation 
				End Site
				{
					OFFSET 0.000000 -2.463878 4.653993
				}
			}
		}
	}
	JOINT rThigh
	{
		OFFSET -5.338403 -1.642589 1.368821
		CHANNELS 3 Xrotation Zrotation Yrotation 
		JOINT rShin
		{
			OFFSET 2.053232 -20.121670 0.000000
			CHANNELS 3 Xrotation Zrotation Yrotation 
			JOINT rFoot
			{
				OFFSET 0.000000 -19.300380 -1.231939
				CHANNELS 3 Xrotation Yrotation Zrotation 
				End Site
				{
					OFFSET 0.000000 -2.463878 4.653993
				}
			}
		}
	}
}
MOTION
Frames: 13
Frame Time: 0.049897
-0.967056 4.176517 -14.691287 89.999390 -13.874649 -90.002548 13.451526 6.020008 -1.211649 0.777204 9.830863 -2.086940 3.662553 12.989542 28.222094 -27.101357 9.546348 -7.978883 -56.602032 29.973728 68.139885 33.395618 -42.071896 -24.832628 -46.406796 -1.949938 -40.533813 46.947350 -39.155159 -85.373581 25.957806 -1.716363 -21.866947 77.055473 2.419670 -4.866261 60.291950 -18.175457 -56.393265 90.024345 -60.743187 -12.721456 -24.949562 1.316324 -0.986168 9.221469 -4.495835 1.371264 22.224411 2.771476 3.006339 -13.684541 -4.557506 0.655942 53.648464 23.623083 -2.946155 41.351730 -0.769956 -0.240719 
-0.888809 4.176517 -14.691287 89.999313 -13.247203 -90.002480 14.028461 6.019971 -1.211669 -1.055791 9.830825 -2.086937 3.681613 13.115750 28.332632 -27.221642 9.570783 -7.728637 -56.713448 29.726309 68.528679 33.547745 -42.211060 -24.940971 -46.911610 -1.941049 -40.546017 47.198620 -38.827110 -85.207664 25.657938 -1.336831 -21.332275 77.295181 2.299656 -4.848112 60.649628 -18.171473 -56.265427 90.421944 -60.971024 -13.077184 -25.448076 1.352643 -0.951644 8.701968 -4.547257 1.414805 22.708427 2.731554 3.045436 -14.354988 -4.839934 0.141634 53.648464 23.623083 -2.946155 41.477249 -0.595626 -0.773575 
-0.810562 4.176517 -14.691287 89.999260 -12.619833 -90.002449 14.605335 6.019934 -1.211690 -2.886910 9.830786 -2.086933 3.700924 13.241868 28.443216 -27.341751 9.595720 -7.478582 -56.822636 29.478251 68.915932 33.700569 -42.350025 -25.050058 -47.416401 -1.932054 -40.558159 47.449909 -38.499630 -85.040642 25.354626 -0.960178 -20.795780 77.534843 2.179570 -4.830468 61.007305 -18.166739 -56.137650 90.825333 -61.197636 -13.438753 -25.946526 1.389259 -0.917440 8.182435 -4.598279 1.458811 23.192427 2.691967 3.084864 -15.022979 -5.128253 -0.369413 53.648464 23.623083 -2.946155 41.604385 -0.422488 -1.306742 
-0.732315 4.176517 -14.691287 89.999199 -11.992577 -90.002403 15.182122 6.019896 -1.211710 -4.715225 9.830747 -2.086927 3.720488 13.367901 28.553864 -27.461683 9.621160 -7.228725 -56.929642 29.229580 69.301689 33.854084 -42.488762 -25.159887 -47.921108 -1.922953 -40.570206 47.701260 -38.172768 -84.872589 25.047903 -0.586477 -20.257475 77.774422 2.059415 -4.813326 61.364922 -18.161245 -56.009899 91.234566 -61.422989 -13.806229 -26.444912 1.426166 -0.883559 7.662889 -4.648896 1.503278 23.676382 2.652718 3.124621 -15.688418 -5.422364 -0.877092 53.648464 23.623083 -2.946155 41.733086 -0.250567 -1.840202 
-0.654068 4.176517 -14.691287 89.999138 -11.365474 -90.002350 15.758796 6.019860 -1.211732 -6.539808 9.830709 -2.086920 3.740304 13.493842 28.664566 -27.581432 9.647096 -6.979067 -57.034458 28.980312 69.685921 34.008301 -42.627281 -25.270460 -48.425755 -1.913747 -40.582180 47.952667 -37.846546 -84.703484 24.737797 -0.215798 -19.717379 78.013939 1.939194 -4.796691 61.722496 -18.154999 -55.882206 91.649826 -61.647068 -14.179746 -26.943207 1.463360 -0.850005 7.143351 -4.699100 1.548198 24.160275 2.613811 3.164700 -16.351208 -5.722160 -1.381299 53.648464 23.623083 -2.946155 41.863358 -0.079887 -2.373934 
-0.575821 4.176517 -14.691287 89.999077 -10.738561 -90.002304 16.335316 6.019823 -1.211753 -8.359755 9.830671 -2.086912 3.760374 13.619700 28.775328 -27.701000 9.673531 -6.729611 -57.137081 28.730474 70.068649 34.163219 -42.765575 -25.381788 -48.930279 -1.904437 -40.594059 48.204136 -37.520973 -84.533356 24.424339 0.151789 -19.175505 78.253387 1.818913 -4.780561 62.080013 -18.147991 -55.754570 92.071144 -61.869808 -14.559380 -27.441391 1.500838 -0.816782 6.623847 -4.748886 1.593568 24.644098 2.575252 3.205099 -17.011251 -6.027529 -1.881938 53.648464 23.623083 -2.946155 41.995190 0.089529 -2.907918 
-0.497573 4.176517 -14.691287 89.999008 -10.111865 -90.002251 16.911667 6.019785 -1.211775 -10.174171 9.830636 -2.086904 3.780694 13.745463 28.886148 -27.820368 9.700457 -6.480362 -57.237572 28.480085 70.449936 34.318851 -42.903645 -25.493870 -49.434685 -1.895028 -40.605858 48.455662 -37.196053 -84.362198 24.107565 0.516214 -18.631872 78.492790 1.698572 -4.764936 62.437458 -18.140232 -55.627010 92.498672 -62.091202 -14.945262 -27.939442 1.538594 -0.783892 6.104393 -4.798248 1.639381 25.127823 2.537042 3.245812 -17.668463 -6.338364 -2.378913 53.648464 23.623083 -2.946155 42.128548 0.257659 -3.442133 
-0.419327 4.176517 -14.691287 89.998947 -9.485434 -90.002205 17.487810 6.019750 -1.211798 -11.982167 9.830598 -2.086893 3.801269 13.871140 28.997028 -27.939548 9.727877 -6.231324 -57.335899 28.229166 70.829720 34.475189 -43.041481 -25.606709 -49.938961 -1.885515 -40.617573 48.707272 -36.871838 -84.190041 23.787497 0.877410 -18.086494 78.732124 1.578177 -4.749816 62.794807 -18.131710 -55.499512 92.932503 -62.311222 -15.337481 -28.437355 1.576624 -0.751341 5.585011 -4.847179 1.685631 25.611443 2.499187 3.286834 -18.322750 -6.654544 -2.872129 53.648464 23.623083 -2.946155 42.263416 0.424477 -3.976558 
-0.341079 4.176517 -14.691287 89.998901 -8.859310 -90.002167 18.063721 6.019712 -1.211820 -13.782892 9.830562 -2.086882 3.822097 13.996722 29.107967 -28.058531 9.755786 -5.982500 -57.432091 27.977730 71.208046 34.632244 -43.179089 -25.720314 -50.443073 -1.875902 -40.629204 48.958969 -36.548321 -84.016914 23.464180 1.235308 -17.539396 78.971382 1.457730 -4.735201 63.152081 -18.122440 -55.372105 93.372688 -62.529789 -15.736122 -28.935099 1.614924 -0.719130 5.065722 -4.895675 1.732312 26.094934 2.461691 3.328162 -18.974043 -6.975959 -3.361502 53.648464 23.623083 -2.946155 42.399792 0.589965 -4.511174 
-0.262832 4.176517 -14.691287 89.998840 -8.233517 -90.002121 18.639374 6.019678 -1.211843 -15.575500 9.830526 -2.086869 3.843178 14.122212 29.218969 -28.177313 9.784183 -5.733893 -57.526150 27.725803 71.584915 34.790028 -43.316460 -25.834688 -50.946991 -1.866194 -40.640728 49.210735 -36.225533 -83.842789 23.137648 1.589842 -16.990601 79.210571 1.337234 -4.721092 63.509251 -18.112415 -55.244785 93.819427 -62.746922 -16.141327 -29.432661 1.653489 -0.687264 4.546551 -4.943730 1.779418 26.578276 2.424555 3.369790 -19.622248 -7.302482 -3.846945 53.648464 23.623083 -2.946155 42.537651 0.754097 -5.045957 
-0.184585 4.176517 -14.691287 89.998772 -7.608092 -90.002083 19.214737 6.019644 -1.211867 -17.359173 9.830488 -2.086856 3.864511 14.247607 29.330030 -28.295898 9.813069 -5.485509 -57.618111 27.473406 71.960350 34.948532 -43.453587 -25.949835 -51.450729 -1.856385 -40.652184 49.462574 -35.903481 -83.667671 22.807930 1.940947 -16.440128 79.449707 1.216695 -4.707488 63.866322 -18.101639 -55.117569 94.272751 -62.962547 -16.553183 -29.930019 1.692314 -0.655746 4.027516 -4.991338 1.826944 27.061459 2.387786 3.411714 -20.267300 -7.633992 -4.328377 53.648464 23.623083 -2.946155 42.676956 0.916854 -5.580883 
-0.106338 4.176517 -14.691287 89.998726 -6.983088 -90.002045 19.789772 6.019607 -1.211890 -19.133135 9.830457 -2.086842 3.886098 14.372908 29.441153 -28.414268 9.842438 -5.237349 -57.707981 27.220566 72.334396 35.107777 -43.590492 -26.065771 -51.954235 -1.846484 -40.663532 49.714512 -35.582184 -83.491615 22.475077 2.288557 -15.888009 79.688774 1.096114 -4.694390 64.223274 -18.090115 -54.990456 94.732765 -63.176620 -16.971769 -30.427164 1.731395 -0.624578 3.508637 -5.038492 1.874881 27.544458 2.351385 3.453928 -20.909122 -7.970367 -4.805723 53.648464 23.623083 -2.946155 42.817726 1.078214 -6.115938 
-0.028091 4.176517 -14.691287 89.998665 -6.358529 -90.001999 20.364464 6.019573 -1.211915 -20.896603 9.830423 -2.086826 3.907939 14.498115 29.552340 -28.532436 9.872288 -4.989417 -57.795738 26.967285 72.706985 35.267761 -43.727150 -26.182489 -52.457497 -1.836489 -40.674789 49.966541 -35.261677 -83.314613 22.139122 2.632612 -15.334269 79.927750 0.975495 -4.681797 64.580078 -18.077833 -54.863449 95.199615 -63.389141 -17.397240 -30.924061 1.770726 -0.593764 2.989939 -5.085192 1.923225 28.027269 2.315358 3.496429 -21.547659 -8.311481 -5.278909 53.648464 23.623083 -2.946155 42.959900 1.238155 -6.651089 
